<?xml version="1.0" encoding="UTF-8"?>
<svg id="Layer_2" data-name="Layer 2" xmlns="http://www.w3.org/2000/svg" viewBox="0 0 120.78 117.79">
  <defs>
    <style>
      .cls-1, .cls-2 {
        fill: #61afb6;
      }

      .cls-2 {
        fill-rule: evenodd;
      }
    </style>
  </defs>
  <g id="Scene_Image" data-name="Scene Image">
    <g>
      <path class="cls-2" d="M60.39,0C27.04,0,0,27.04,0,60.39c0,26.68,17.3,49.32,41.3,57.3,3.02.56,4.12-1.31,4.12-2.9,0-1.44-.06-6.2-.08-11.24-16.8,3.65-20.34-7.12-20.34-7.12-2.75-6.98-6.7-8.84-6.7-8.84-5.48-3.75.41-3.67.41-3.67,6.06.43,9.26,6.22,9.26,6.22,5.39,9.23,14.13,6.56,17.57,5.02.54-3.9,2.11-6.57,3.83-8.08-13.41-1.53-27.51-6.7-27.51-29.84,0-6.59,2.36-11.98,6.22-16.21-.63-1.52-2.69-7.66.58-15.98,0,0,5.07-1.62,16.61,6.19,4.82-1.34,9.99-2.01,15.12-2.03,5.13.02,10.3.69,15.13,2.03,11.53-7.81,16.59-6.19,16.59-6.19,3.29,8.32,1.22,14.46.59,15.98,3.87,4.23,6.21,9.62,6.21,16.21,0,23.19-14.13,28.3-27.57,29.8,2.17,1.87,4.1,5.55,4.1,11.18,0,8.08-.07,14.58-.07,16.57,0,1.61,1.09,3.49,4.15,2.9,23.98-7.99,41.26-30.62,41.26-57.29C120.78,27.04,93.74,0,60.39,0h0Z"/>
    </g>
  </g>
</svg>