<?xml version="1.0" encoding="UTF-8"?>
<svg id="Layer_2" data-name="Layer 2" xmlns="http://www.w3.org/2000/svg" viewBox="0 0 122 122">
  <defs>
    <style>
      .cls-1 {
        fill: #61afb6;
      }
    </style>
  </defs>
  <g id="Scene_Image" data-name="Scene Image">
    <path class="cls-1" d="M113,0H9C4.08-.05.06,3.89,0,8.8v104.42c.07,4.9,4.09,8.83,9,8.78h104c4.91.04,8.93-3.9,9-8.81V8.77C121.91,3.87,117.89-.04,113,0ZM36.17,104h-18.11v-58.27h18.11v58.27ZM27.12,37.73c-5.8,0-10.5-4.7-10.5-10.5h0c0-5.81,4.7-10.5,10.5-10.5s10.5,4.7,10.5,10.5-4.7,10.5-10.5,10.5ZM104,104h-18.11v-28.35c0-6.75-.12-15.44-9.41-15.44s-10.87,7.36-10.87,15v28.79h-18.08v-58.27h17.36v8h.24c2.42-4.58,8.32-9.41,17.13-9.41,18.34-.04,21.74,12.03,21.74,27.68v32Z"/>
  </g>
</svg>