<svg width="169" height="76" viewBox="0 0 169 76" fill="none" xmlns="http://www.w3.org/2000/svg">
<path d="M12.2577 38.8596L11.7361 39.6421H163.523L163.002 38.8596L156.481 34.6868L153.091 31.0356L147.614 25.8195L142.398 22.4291H140.051L134.052 18.7779L129.097 18.2563L122.316 15.6482L110.58 7.04175L96.4969 16.4306L92.0632 17.7346L88.6728 15.909L83.9784 18.7779L80.3271 19.2995H76.9367L75.3719 17.9955V19.2995L73.5463 20.3427L70.1558 19.8211L68.3302 18.7779L64.9398 17.213L62.5926 15.909L61.2885 15.1266L58.4197 15.909H55.5509L52.4213 13.301L47.2052 14.605L43.0324 14.3442L39.3811 17.9955L36.7731 19.2995L33.3827 23.2115L24.2546 29.4708L21.6466 33.3828L17.9953 34.6868L16.6913 36.2516L12.2577 38.8596Z" fill="url(#paint0_linear_267_1505)"/>
<path fill-rule="evenodd" clip-rule="evenodd" d="M39.642 65.9205C40.3357 65.9205 40.3774 65.9466 40.3774 66.3169V68.3303C40.3774 69.7752 40.2575 69.8169 39.6107 69.8951L39.3134 69.9369C39.2631 69.9917 39.2353 70.0633 39.2353 70.1377C39.2353 70.212 39.2631 70.2837 39.3134 70.3385C39.9132 70.3072 40.5287 70.2968 41.1598 70.2968C41.791 70.2968 42.3752 70.2968 42.9802 70.3385C43.0283 70.2826 43.0548 70.2114 43.0548 70.1377C43.0548 70.064 43.0283 69.9927 42.9802 69.9369L42.6777 69.8951C42.0361 69.8117 41.911 69.7699 41.911 68.3303V63.2499C41.911 61.7998 42.0361 61.7633 42.6777 61.6851L42.9229 61.6433C42.9731 61.5885 43.0009 61.5169 43.0009 61.4425C43.0009 61.3682 42.9731 61.2965 42.9229 61.2417C42.4013 61.2417 41.7597 61.2834 41.1598 61.2834C40.56 61.2834 39.9445 61.2834 39.3134 61.2417C39.2631 61.2965 39.2353 61.3682 39.2353 61.4425C39.2353 61.5169 39.2631 61.5885 39.3134 61.6433L39.6107 61.6851C40.2575 61.7685 40.3774 61.805 40.3774 63.2499V64.9034C40.3774 65.2841 40.3357 65.3102 39.642 65.3102H36.4498C35.7508 65.3102 35.7143 65.3102 35.7143 64.9034V63.2499C35.7143 61.7998 35.8343 61.7633 36.4758 61.6851L36.7106 61.6433C36.7597 61.588 36.7868 61.5165 36.7868 61.4425C36.7868 61.3685 36.7597 61.2971 36.7106 61.2417C36.1889 61.2417 35.5578 61.2834 34.958 61.2834C34.3581 61.2834 33.7165 61.2834 33.1115 61.2417C33.0624 61.2971 33.0352 61.3685 33.0352 61.4425C33.0352 61.5165 33.0624 61.588 33.1115 61.6433L33.414 61.6851C34.0556 61.7685 34.1756 61.805 34.1756 63.2499V68.3303C34.1756 69.7752 34.0556 69.8169 33.414 69.8951L33.221 69.9212C33.1271 70.0151 33.1376 70.2655 33.221 70.3228C33.7426 70.2915 34.3581 70.2811 34.958 70.2811C35.5578 70.2811 36.1733 70.2811 36.8879 70.3228C36.9974 70.2655 37.0079 70.0151 36.8879 69.9212L36.4758 69.8638C35.8343 69.796 35.7143 69.7543 35.7143 68.299V66.2908C35.7143 65.9205 35.7508 65.8944 36.4498 65.8944L39.642 65.9205Z" fill="white"/>
<path fill-rule="evenodd" clip-rule="evenodd" d="M61.8102 61.0539C61.163 61.0254 60.5169 61.1312 59.9125 61.3646C59.3082 61.598 58.7587 61.954 58.2986 62.4101C57.8386 62.8663 57.4779 63.4127 57.2393 64.015C57.0007 64.6174 56.8894 65.2625 56.9124 65.91C56.9124 68.3407 58.691 70.5158 61.7842 70.5158C62.4123 70.5392 63.0386 70.4346 63.6251 70.2084C64.2116 69.9823 64.746 69.6392 65.1958 69.2002C65.6456 68.7611 66.0014 68.2352 66.2417 67.6543C66.4819 67.0735 66.6016 66.4498 66.5934 65.8213C66.5934 63.3228 64.9659 61.0539 61.8102 61.0539ZM61.6329 61.5755C63.808 61.5755 64.7625 63.9696 64.7625 66.03C64.7625 68.7788 63.5055 69.942 61.9459 69.942C59.6091 69.942 58.8162 67.3705 58.8162 65.4875C58.7745 62.5926 60.2663 61.6015 61.6329 61.6015V61.5755Z" fill="white"/>
<path fill-rule="evenodd" clip-rule="evenodd" d="M91.4947 69.895C91.0565 69.8376 90.9105 69.7437 90.8688 68.8518C90.7697 66.8332 90.7436 64.8094 90.7436 62.7855C90.7436 62.0605 90.8792 61.831 91.4843 61.7423L91.9328 61.6745C91.9631 61.6493 91.9867 61.617 92.0015 61.5805C92.0163 61.544 92.0219 61.5044 92.0177 61.4652C92.0136 61.426 91.9999 61.3884 91.9778 61.3558C91.9557 61.3232 91.926 61.2965 91.8911 61.2781C91.5103 61.2781 91.0305 61.3198 90.4567 61.3198C90.1542 61.3198 89.7056 61.3198 89.3352 61.2781C89.0561 62.1827 88.6856 63.0566 88.2294 63.8861L86.9411 66.4942C86.6438 67.1357 86.4508 67.5374 86.2317 67.9181C86.0544 67.6 85.7101 66.9219 85.5901 66.6871L84.0827 63.5314C83.6958 62.8273 83.4413 62.0583 83.3316 61.2625C82.81 61.3042 82.3457 61.3042 81.8711 61.3042C81.3964 61.3042 80.9948 61.3042 80.5827 61.2625C80.4627 61.3042 80.4471 61.565 80.5306 61.6589L80.9948 61.7423C81.5164 61.8206 81.7302 62.1127 81.7302 62.7542C81.7302 63.5836 81.652 64.7207 81.5946 65.6492C81.5268 67.0679 81.5007 67.9599 81.3912 68.8205C81.2817 69.6812 81.1982 69.8637 80.541 69.942L80.3115 69.968C80.2678 70.0284 80.2478 70.1027 80.2555 70.1768C80.2632 70.251 80.298 70.3196 80.3532 70.3697C80.8748 70.3384 81.3964 70.3279 81.8137 70.3279C82.231 70.3279 82.7422 70.3279 83.2481 70.3697C83.3577 70.3123 83.3577 70.0515 83.2481 69.968L82.7943 69.8846C82.2101 69.7907 82.1945 69.5716 82.1945 68.6692C82.1945 67.5478 82.1945 66.3325 82.2518 65.4979C82.2779 64.9241 82.304 63.86 82.3301 63.1872H82.3614C82.5231 63.5992 82.883 64.4599 83.1542 65.0337L84.3696 67.6417C84.6825 68.325 85.2719 69.6655 85.5067 70.4062C85.5615 70.4345 85.6223 70.4493 85.684 70.4493C85.7457 70.4493 85.8065 70.4345 85.8614 70.4062C86.1065 69.7594 86.7898 68.2415 87.254 67.2766L88.4329 64.872C88.6884 64.3504 88.8814 63.9174 89.2518 63.1611H89.2779V68.7475C89.2779 69.6759 89.2361 69.7907 88.6885 69.8689L88.3233 69.9367C88.1825 70.0202 88.2399 70.281 88.3233 70.3384C88.9232 70.3071 89.5126 70.2967 90.1542 70.2967C90.7018 70.2967 91.2339 70.2967 91.8233 70.3384C91.9746 70.281 91.985 69.9889 91.8233 69.9367L91.4947 69.895Z" fill="white"/>
<path fill-rule="evenodd" clip-rule="evenodd" d="M106.877 68.3303C106.877 69.7804 106.757 69.8169 106.11 69.8951L105.589 69.9525C105.543 70.0103 105.521 70.0833 105.526 70.1569C105.532 70.2304 105.566 70.299 105.62 70.3489C106.235 70.3489 107.065 70.3072 107.67 70.3072H109.235C110.831 70.3072 112.015 70.3072 112.615 70.3489C112.883 69.7131 113.076 69.0478 113.188 68.3668C113.139 68.3004 113.067 68.2548 112.986 68.2394C112.904 68.2239 112.82 68.2396 112.75 68.2834C112.276 69.3944 111.973 69.7908 110.231 69.7595C109.089 69.7595 108.854 69.65 108.666 69.457C108.478 69.264 108.431 68.7372 108.431 68.0382V66.3013C108.431 65.957 108.431 65.9309 108.76 65.9309H109.417C110.601 65.9309 110.831 65.957 110.93 66.536L111.024 67.0576C111.089 67.1011 111.167 67.1243 111.245 67.1243C111.324 67.1243 111.401 67.1011 111.467 67.0576C111.467 66.6194 111.425 66.1396 111.425 65.618C111.425 65.0964 111.425 64.6217 111.467 64.2514C111.399 64.1418 111.133 64.1418 111.024 64.2514L110.93 64.7156C110.831 65.305 110.601 65.3154 109.417 65.3154H108.76C108.447 65.3154 108.431 65.3154 108.431 64.9451V62.6344C108.431 61.8572 108.431 61.8311 109.021 61.8311H109.934C110.301 61.8214 110.667 61.8618 111.024 61.9511C111.467 62.0606 111.67 62.4049 111.89 63.1977C111.999 63.276 112.276 63.2499 112.328 63.1403C112.249 62.5561 112.166 61.4764 112.109 61.2417C111.931 61.2417 111.133 61.2834 110.262 61.2834H107.654C107.049 61.2834 106.407 61.2834 105.891 61.2417C105.782 61.2939 105.766 61.5442 105.86 61.6381H106.079C106.726 61.7372 106.846 61.7737 106.846 63.2029L106.877 68.3303Z" fill="white"/>
<path fill-rule="evenodd" clip-rule="evenodd" d="M129.082 70.5159C131.064 70.5159 132.253 69.4101 132.253 67.8505C132.225 67.2707 132.034 66.7105 131.703 66.2337C131.372 65.7569 130.914 65.3827 130.38 65.1538L129.53 64.7052C128.628 64.2253 128.231 63.6098 128.231 63.0361C128.224 62.8343 128.26 62.6332 128.338 62.4469C128.416 62.2605 128.533 62.0934 128.682 61.9569C128.831 61.8204 129.008 61.718 129.2 61.6567C129.392 61.5953 129.596 61.5765 129.796 61.6016C130.954 61.6016 131.434 62.5144 131.643 63.229C131.707 63.2772 131.787 63.2995 131.867 63.2918C131.947 63.2841 132.022 63.2469 132.076 63.1873C132.082 62.5603 131.985 61.9365 131.789 61.3408C131.176 61.1792 130.549 61.0831 129.916 61.054C127.918 61.054 126.906 62.2015 126.906 63.5577C126.906 64.7886 127.809 65.6441 128.836 66.197L129.426 66.5256C130.469 67.0994 130.819 67.7253 130.819 68.5077C130.819 69.2901 130.229 69.9682 129.191 69.9682C127.851 69.9682 127.105 68.5077 126.87 67.8087C126.806 67.761 126.725 67.7398 126.646 67.7495C126.566 67.7592 126.493 67.7991 126.442 67.8609C126.394 68.5805 126.536 69.3001 126.854 69.9473C127.529 70.3416 128.301 70.5386 129.082 70.5159Z" fill="white"/>
<path fill-rule="evenodd" clip-rule="evenodd" d="M18.8925 53.621C18.2822 53.5428 18.0683 53.4072 18.011 52.1292C17.8806 49.2969 17.8388 46.4646 17.8388 43.6323C17.8388 42.6204 18.0318 42.297 18.882 42.1822L19.5184 42.0831C19.5608 42.0481 19.5939 42.0031 19.6147 41.9522C19.6356 41.9013 19.6435 41.846 19.6378 41.7913C19.6321 41.7366 19.613 41.6841 19.5822 41.6386C19.5513 41.593 19.5097 41.5558 19.461 41.5302C18.9394 41.5667 18.2509 41.5876 17.4476 41.5876C17.0251 41.5876 16.4044 41.5876 15.8828 41.5302C15.4843 42.7965 14.9601 44.0196 14.318 45.1815L12.5185 48.8327C12.096 49.7299 11.8299 50.2671 11.5222 50.82C11.2718 50.3819 10.7763 49.4221 10.625 49.0987L8.53861 44.6807C7.99604 43.6961 7.64223 42.6187 7.4954 41.5042C6.78602 41.5615 6.11837 41.5615 5.4455 41.5615C4.77263 41.5615 4.21972 41.5615 3.64596 41.5042C3.47383 41.5615 3.45818 41.9266 3.57293 42.0571L4.17278 42.1979C4.91867 42.3126 5.21599 42.7195 5.21599 43.6167C5.21599 44.7798 5.09602 46.3707 5.023 47.6695C4.92389 49.6621 4.88738 50.9035 4.73611 52.1084C4.58485 53.3133 4.46488 53.5637 3.54685 53.6732L3.23389 53.7254C3.17314 53.8101 3.14544 53.9141 3.15601 54.0179C3.16658 54.1216 3.21468 54.2179 3.29127 54.2887C4.03716 54.2522 4.72568 54.2313 5.34117 54.2313C6.04534 54.2313 6.63997 54.2313 7.34935 54.2887C7.50062 54.2104 7.50062 53.8453 7.34935 53.7254L6.713 53.6106C5.89408 53.475 5.87321 53.1725 5.87321 51.9102C5.87321 50.3454 5.90972 48.6397 5.95145 47.4713C5.98797 46.668 6.02448 45.1762 6.06621 44.2374H6.10272C6.33222 44.8111 6.84861 46.016 7.21374 46.8193L8.91938 50.4705C9.35753 51.4303 10.1817 53.3029 10.4842 54.3461C10.5654 54.3857 10.6546 54.4063 10.745 54.4063C10.8354 54.4063 10.9246 54.3857 11.0058 54.3461C11.3501 53.4385 12.3046 51.3155 12.9566 49.975L14.6049 46.6211C14.9648 45.8543 15.236 45.2806 15.7524 44.2269H15.7889V52.051C15.7889 53.3498 15.7315 53.5063 14.9648 53.6158L14.4432 53.7097C14.4049 53.7474 14.3752 53.793 14.3563 53.8433C14.3374 53.8936 14.3296 53.9474 14.3336 54.001C14.3376 54.0546 14.3532 54.1067 14.3793 54.1537C14.4054 54.2007 14.4415 54.2414 14.4849 54.273C15.3508 54.247 16.1697 54.247 17.0721 54.247C17.8388 54.247 18.5847 54.247 19.4089 54.3043C19.6227 54.2261 19.6384 53.8192 19.4506 53.741L18.8925 53.621Z" fill="white"/>
<path fill-rule="evenodd" clip-rule="evenodd" d="M30.3574 44.3365C30.3574 42.3127 30.5295 42.2501 31.4006 42.1406L31.8231 42.0832C31.8888 42.0058 31.9244 41.9073 31.9235 41.8058C31.9225 41.7042 31.885 41.6064 31.8179 41.5303C30.9729 41.5668 30.1122 41.5877 29.2672 41.5877C28.4222 41.5877 27.5251 41.5876 26.6592 41.5303C26.5847 41.6031 26.5398 41.701 26.5331 41.8049C26.5263 41.9089 26.5582 42.0117 26.6227 42.0936L27.04 42.151C27.9423 42.2657 28.1145 42.3231 28.1145 44.3469V51.4616C28.1145 53.4855 27.9423 53.5481 27.04 53.6576L26.6227 53.715C26.5582 53.7968 26.5263 53.8996 26.5331 54.0036C26.5398 54.1076 26.5847 54.2054 26.6592 54.2783C27.499 54.2418 28.4014 54.2209 29.2672 54.2209C30.1331 54.2209 30.9729 54.2209 31.8179 54.2783C31.8924 54.2054 31.9373 54.1076 31.944 54.0036C31.9508 53.8996 31.9188 53.7968 31.8544 53.715L31.4319 53.6576C30.5347 53.5428 30.3887 53.4855 30.3887 51.4616L30.3574 44.3365Z" fill="white"/>
<path fill-rule="evenodd" clip-rule="evenodd" d="M41.0243 51.4616C41.0243 53.4854 40.8522 53.548 39.9551 53.6575L39.5326 53.7149C39.4962 53.7534 39.4683 53.799 39.4503 53.8489C39.4324 53.8987 39.4249 53.9517 39.4284 54.0045C39.4318 54.0573 39.446 54.1089 39.4702 54.156C39.4945 54.2031 39.5281 54.2447 39.5691 54.2782C40.4506 54.2417 41.3112 54.2209 42.1771 54.2209C43.043 54.2209 43.8827 54.2209 44.7225 54.2782C44.797 54.2054 44.8419 54.1075 44.8487 54.0036C44.8554 53.8996 44.8235 53.7968 44.759 53.7149L44.3418 53.6575C43.4394 53.5428 43.2672 53.4854 43.2672 51.4616V49.0309C43.2672 48.6293 43.2672 48.6084 43.8619 48.6084C44.1048 48.5648 44.3553 48.6057 44.5716 48.7244C44.788 48.843 44.9573 49.0322 45.0511 49.2604C45.5101 50.0063 46.0422 51.0547 46.5586 51.8684C47.727 53.6471 48.7232 54.3982 50.5645 54.3982C50.9884 54.4114 51.4122 54.3729 51.8268 54.2835C51.8588 54.2222 51.8719 54.1528 51.8644 54.0841C51.857 54.0154 51.8294 53.9505 51.7851 53.8975C51.2956 53.8356 50.8359 53.6285 50.4654 53.3028C49.5682 52.5569 48.6085 50.9295 47.0802 48.3528C47.0019 48.238 46.9654 48.0816 47.0802 48.0242C48.0138 47.6434 49.3752 46.7619 49.3752 44.9989C49.3934 44.4208 49.244 43.8498 48.9451 43.3547C48.6461 42.8596 48.2104 42.4615 47.6905 42.2083C46.5408 41.7095 45.2905 41.4862 44.0392 41.5563C42.4744 41.5563 40.8418 41.6137 39.6369 41.7284C39.5705 41.799 39.5335 41.8923 39.5335 41.9892C39.5335 42.0861 39.5705 42.1794 39.6369 42.25L40.1585 42.3074C41.0609 42.4013 41.0765 42.6308 41.0765 44.4668L41.0243 51.4616ZM43.2464 43.2306C43.2464 42.3543 43.2464 42.297 44.2896 42.297C45.9535 42.297 46.9289 43.6166 46.9289 45.1293C46.9289 46.9445 46.0683 47.8677 44.1905 47.8677C43.2725 47.8677 43.2725 47.826 43.2725 47.2157L43.2464 43.2306Z" fill="white"/>
<path fill-rule="evenodd" clip-rule="evenodd" d="M63.9487 49.5524C64.4703 49.5524 64.5434 49.5524 64.7364 50.074L65.6335 52.682C65.8839 53.5009 65.8265 53.6157 65.1119 53.6939L64.6894 53.7513C64.6328 53.8375 64.6075 53.9406 64.618 54.0432C64.6284 54.1458 64.6739 54.2417 64.7468 54.3147C65.4197 54.3147 66.2594 54.2573 67.0836 54.2573C68.0798 54.2573 68.7892 54.2573 69.5716 54.3147C69.642 54.2377 69.681 54.1372 69.681 54.033C69.681 53.9287 69.642 53.8282 69.5716 53.7513L69.2848 53.6939C68.3094 53.5218 68.2155 53.3914 67.7721 52.1291L65.018 44.1121C64.7103 43.2514 64.4599 42.3543 64.1574 41.504C64.1188 41.4542 64.0688 41.4145 64.0116 41.3881C63.9544 41.3618 63.8917 41.3497 63.8288 41.3528C63.466 41.7663 63.005 42.082 62.4882 42.2708C62.4814 42.7588 62.358 43.2381 62.1283 43.6687L59.5203 50.4809C59.1187 51.5241 58.8109 52.3169 58.5814 52.8124C58.2945 53.4436 58.0598 53.6157 57.5382 53.6939L56.9644 53.7878C56.8972 53.8663 56.8603 53.9662 56.8603 54.0695C56.8603 54.1728 56.8972 54.2727 56.9644 54.3512C57.6321 54.3147 58.2267 54.2938 58.8579 54.2938C59.6455 54.2938 60.2766 54.2938 60.8869 54.3512C60.9614 54.2783 61.0063 54.1805 61.0131 54.0765C61.0198 53.9725 60.9879 53.8697 60.9234 53.7878L60.3705 53.6939C59.6611 53.5948 59.5881 53.5375 59.9689 52.4108L60.7513 50.1209C60.9234 49.5993 60.9078 49.5993 61.4033 49.5993L63.9487 49.5524ZM61.7111 48.6918C61.252 48.6918 61.1894 48.6918 61.4033 48.1336L62.2066 45.9012C62.5508 44.9988 62.7282 44.5241 62.7803 44.3885H62.8221C63.0379 44.8773 63.2124 45.3832 63.3437 45.9012L64.1469 48.1962C64.2982 48.6552 64.22 48.7178 63.6879 48.7178L61.7111 48.6918Z" fill="white"/>
<path fill-rule="evenodd" clip-rule="evenodd" d="M91.1869 53.621C90.5766 53.5428 90.368 53.4072 90.3106 52.1292C90.175 49.2969 90.1385 46.4646 90.1385 43.6323C90.1385 42.6204 90.3262 42.297 91.1817 42.1822L91.8128 42.0831C91.8565 42.0488 91.8907 42.004 91.9123 41.9529C91.934 41.9018 91.9423 41.8461 91.9366 41.7909C91.9309 41.7357 91.9113 41.6828 91.8796 41.6372C91.8479 41.5916 91.8052 41.5548 91.7554 41.5302C91.2338 41.5667 90.5505 41.5876 89.7473 41.5876C89.3248 41.5876 88.7041 41.5876 88.1825 41.5302C87.7838 42.7964 87.2596 44.0196 86.6176 45.1815L84.8181 48.8327C84.4008 49.7299 84.1296 50.2671 83.8218 50.82C83.5767 50.3819 83.0759 49.4221 82.9247 49.0987L80.8383 44.6807C80.2957 43.6961 79.9419 42.6187 79.795 41.5042C79.0909 41.5615 78.418 41.5615 77.7504 41.5615C77.0827 41.5615 76.5246 41.5615 75.9508 41.5042C75.7787 41.5615 75.7578 41.9266 75.8726 42.0571L76.5246 42.1718C77.2705 42.2866 77.5678 42.6934 77.5678 43.5906C77.5678 44.7537 77.453 46.3446 77.3748 47.6434C77.2809 49.636 77.2444 50.8774 77.0879 52.0823C76.9314 53.2872 76.8219 53.5376 75.9039 53.6471L75.5753 53.6836C75.5145 53.7684 75.4868 53.8724 75.4974 53.9761C75.5079 54.0799 75.556 54.1762 75.6326 54.247C76.3785 54.2104 77.067 54.1896 77.6825 54.1896C78.3919 54.1896 78.9813 54.1896 79.6907 54.247C79.8472 54.1687 79.8472 53.8036 79.6907 53.6836L79.0596 53.5689C78.2354 53.4333 78.2146 53.1307 78.2146 51.8684C78.2146 50.3036 78.2563 48.598 78.2928 47.4296C78.3293 46.6263 78.3711 45.1345 78.4076 44.1956H78.4441C78.6736 44.7694 79.1952 45.9743 79.5551 46.7776L81.2608 50.4288C81.6989 51.3886 82.523 53.2611 82.8256 54.3043C82.9066 54.3447 82.9958 54.3658 83.0864 54.3658C83.1769 54.3658 83.2662 54.3447 83.3472 54.3043C83.6914 53.3967 84.6512 51.2738 85.298 49.9333L86.9462 46.5689C87.3114 45.8022 87.5774 45.2284 88.0938 44.1748H88.1355V51.9988C88.1355 53.2976 88.0781 53.4541 87.3114 53.5637L86.7898 53.6575C86.5968 53.7775 86.675 54.1426 86.8263 54.2209C87.6713 54.1844 88.4902 54.1635 89.3926 54.1635C90.1593 54.1635 90.9052 54.1635 91.7294 54.2209C91.938 54.1426 91.9589 53.7358 91.7659 53.6575L91.1869 53.621Z" fill="white"/>
<path fill-rule="evenodd" clip-rule="evenodd" d="M105.046 41.2798C101.024 41.2798 98.1921 44.1695 98.1921 48.0606C98.1921 51.4667 100.68 54.5129 105.004 54.5129C108.875 54.5129 111.743 51.6962 111.743 47.925C111.743 44.4564 109.469 41.2798 105.046 41.2798ZM104.796 42.0465C107.842 42.0465 109.141 45.3952 109.141 48.3058C109.141 52.1552 107.383 53.7827 105.197 53.7827C101.927 53.7827 100.795 50.1836 100.795 47.5234C100.795 43.4444 102.881 42.0465 104.796 42.0465Z" fill="white"/>
<path fill-rule="evenodd" clip-rule="evenodd" d="M130.14 46.4228C130.14 44.9102 130.14 43.2463 130.406 42.6516C130.542 42.3491 130.865 42.2709 131.231 42.2135L131.674 42.1196C131.743 42.0391 131.777 41.9348 131.769 41.8294C131.761 41.7239 131.712 41.6258 131.632 41.5563C130.944 41.5928 130.448 41.6136 129.624 41.6136C128.878 41.6136 128.169 41.6136 127.423 41.5563C127.23 41.6136 127.209 41.984 127.381 42.1196L127.824 42.177C128.009 42.1795 128.191 42.2235 128.356 42.3056C128.521 42.3878 128.666 42.506 128.779 42.6516C129.123 43.2306 129.144 44.9884 129.144 46.4228V50.1471C129.144 50.4548 129.144 50.5487 129.087 50.6061C128.894 50.4914 127.115 48.4675 126.312 47.586L124.398 45.4996C123.725 44.7746 121.638 42.37 121.315 41.5354C120.856 41.5719 120.397 41.5928 119.995 41.5928C119.515 41.5928 118.462 41.5928 117.737 41.5354C117.544 41.5928 117.523 41.9788 117.658 42.0987L117.945 42.1561C118.304 42.2228 118.648 42.3517 118.962 42.5369C119.609 43.095 119.594 43.3975 119.594 44.8893V49.4221C119.594 50.9295 119.594 52.5934 119.343 53.1881C119.208 53.4906 118.863 53.5688 118.498 53.6262L118.081 53.7201C118.012 53.7999 117.977 53.9038 117.983 54.0093C117.99 54.1147 118.038 54.2132 118.117 54.2834C118.79 54.2469 119.307 54.2261 120.11 54.2261C120.835 54.2261 121.581 54.2261 122.29 54.2834C122.483 54.2261 122.504 53.8557 122.332 53.7201L121.909 53.6627C121.722 53.66 121.537 53.616 121.369 53.534C121.2 53.452 121.052 53.3339 120.934 53.1881C120.605 52.6143 120.59 50.8513 120.59 49.4221V45.6874C120.59 44.6755 120.59 44.4616 120.642 44.4616C120.971 44.7485 121.581 45.5048 122.827 46.8714L127.308 51.9779C128.685 53.5427 129.238 54.2 129.546 54.586C129.668 54.6002 129.792 54.5832 129.906 54.5367C130.02 54.4902 130.12 54.4156 130.198 54.3199C130.14 53.8766 130.14 51.5189 130.14 50.9452V46.4228Z" fill="white"/>
<path fill-rule="evenodd" clip-rule="evenodd" d="M143.092 51.4667C143.092 53.4957 142.92 53.5531 142.017 53.6261L141.214 53.7253C141.15 53.8055 141.119 53.9065 141.126 54.0088C141.132 54.111 141.177 54.207 141.251 54.2781C142.476 54.2416 143.379 54.2208 144.218 54.2208C145.058 54.2208 145.924 54.2208 147.035 54.2781C147.186 54.2051 147.207 53.8557 147.072 53.7253L146.383 53.647C145.486 53.5531 145.314 53.4957 145.314 51.4667V43.194C145.314 42.3908 145.314 42.3543 145.835 42.3543H146.926C148.976 42.3543 149.335 42.7142 149.586 44.2112C149.676 44.2731 149.785 44.3013 149.894 44.2908C150.002 44.2803 150.104 44.2318 150.18 44.1538C150.159 43.1308 150.256 42.1087 150.467 41.1076C150.436 41.0738 150.396 41.0478 150.353 41.0315C150.31 41.0152 150.263 41.0092 150.217 41.0137C150.136 41.0212 150.058 41.0462 149.987 41.0868C149.758 41.5301 149.466 41.6084 148.532 41.6084H140.708C139.404 41.6084 139.143 41.6084 139.039 41.0868C139.016 41.0601 138.987 41.0395 138.954 41.0268C138.921 41.014 138.886 41.0095 138.851 41.0137C138.812 41.0079 138.773 41.0114 138.735 41.0241C138.698 41.0368 138.664 41.0583 138.637 41.0868C138.438 42.0638 138.189 43.03 137.891 43.9817C137.962 44.073 138.062 44.1363 138.175 44.1602C138.288 44.1841 138.406 44.167 138.507 44.1121C139.216 42.5473 139.733 42.3543 141.491 42.3543H142.565C143.087 42.3543 143.087 42.3908 143.087 43.194L143.092 51.4667Z" fill="white"/>
<path fill-rule="evenodd" clip-rule="evenodd" d="M158.109 51.4667C158.109 53.4958 157.937 53.5531 157.04 53.647L156.33 53.7253C156.195 53.8557 156.215 54.2051 156.367 54.2782C157.227 54.2416 158.396 54.2208 159.241 54.2208H161.421C163.654 54.2208 165.307 54.2208 166.152 54.2782C166.527 53.3878 166.797 52.4564 166.955 51.5032C166.887 51.4087 166.785 51.3441 166.67 51.3227C166.556 51.3013 166.437 51.3249 166.34 51.3885C165.672 52.9533 165.25 53.4749 162.814 53.4749C161.207 53.4749 160.884 53.3236 160.654 53.0576C160.425 52.7916 160.331 52.0144 160.331 51.0651V48.6135C160.331 48.1337 160.331 48.0919 160.79 48.0919H161.697C163.356 48.0919 163.68 48.1284 163.815 48.9317L163.951 49.6985C164.043 49.7599 164.151 49.7927 164.261 49.7927C164.372 49.7927 164.48 49.7599 164.572 49.6985C164.572 49.0882 164.514 48.4153 164.514 47.6903C164.514 46.9653 164.551 46.2924 164.572 45.776C164.482 45.7095 164.373 45.6736 164.261 45.6736C164.149 45.6736 164.041 45.7095 163.951 45.776L163.815 46.428C163.68 47.2521 163.356 47.273 161.697 47.273H160.779C160.341 47.273 160.32 47.273 160.32 46.7514V43.5175C160.32 42.4273 160.32 42.3908 161.139 42.3908H162.423C162.937 42.3768 163.452 42.4348 163.951 42.5629C164.572 42.7142 164.858 43.1941 165.161 44.3051C165.317 44.4198 165.683 44.3781 165.776 44.2268C165.662 43.4027 165.547 41.89 165.469 41.5667C165.218 41.6032 164.102 41.624 162.861 41.624H159.209C158.364 41.624 157.467 41.624 156.737 41.5667C156.586 41.6397 156.565 41.9891 156.701 42.1196L157.008 42.1613C157.905 42.2917 158.078 42.3491 158.078 44.3781L158.109 51.4667Z" fill="white"/>
<path d="M2.84271 57.7261H166.955" stroke="#C06437" stroke-width="1.09537" stroke-miterlimit="3.86"/>
<path d="M163.262 38.6717C163.262 38.6717 154.213 34.6084 153.529 33.8312L153.639 32.2664C152.47 30.9989 142.805 23.0757 141.433 23.1226C139.806 23.1748 141.433 23.9155 138.705 23.2113C137.078 22.794 131.992 19.3984 131.105 19.5966C130.726 19.6861 130.341 19.7489 129.953 19.7844C130.584 20.6659 130.918 21.6674 131.518 22.2933C132.196 23.0578 132.915 23.7856 133.672 24.4736C132.675 23.6129 131.544 23.0548 130.798 22.2933C130.135 21.61 129.191 20.4781 128.336 19.5392C127.496 19.1532 126.828 18.3656 125.263 17.4528C122.457 19.1115 119.943 15.3038 117.878 13.8746C117.424 13.5616 117.001 13.8746 116.6 13.7442C115.504 13.4208 114.654 11.7882 113.512 11.4543C113.042 11.3135 112.573 9.88952 112.088 9.49832L111.045 8.75764C109.928 8.79415 109.271 9.80085 108.369 10.239C108.056 10.3955 107.659 11.2457 107.326 11.3344C106.392 11.5743 106.136 11.9186 105.239 12.2576C104.42 12.5654 103.852 12.9826 102.939 13.1496L102.475 13.2174C101.953 14.5788 100.148 15.1317 99.1937 16.1279C99.0111 16.1801 98.8286 16.2375 98.6721 16.3C94.76 18.6055 92.6997 23.2896 88.7616 25.0317L89.1163 24.2597C91.3383 22.5332 91.5835 21.0936 93.3621 18.9081C92.8362 18.9369 92.3132 19.0049 91.7973 19.1115C90.9941 19.2993 89.5388 16.9103 88.6677 17.338C87.1029 18.1048 85.778 19.9461 84.0358 19.6122C83.3525 19.4871 81.2505 20.9423 80.6663 21.0675C78.3608 21.5891 77.6305 20.4259 75.6536 19.5027L74.8504 21.5891C74.7021 21.6759 74.5396 21.7359 74.3705 21.7665C76.144 23.4721 75.3616 24.5571 76.7177 26.0175C78.0739 27.478 78.5538 27.4363 79.9778 28.8342C78.5433 27.4363 77.0724 27.5354 75.6693 26.0175C74.3444 24.5936 74.2662 24.0146 72.5084 22.335L71.9868 21.9021C69.8065 20.6398 67.501 18.9081 65.0599 19.1897C64.546 18.6689 63.9505 18.2354 63.2968 17.9066C62.3945 17.4997 62.3006 16.1853 61.6903 16.2062C60.1255 16.274 58.3677 18.8142 56.5994 16.6443C54.9303 17.8336 54.054 16.4513 52.823 14.4953C52.4686 14.6524 52.0821 14.7235 51.695 14.7026C51.3079 14.6818 50.9312 14.5696 50.5958 14.3753C46.7985 17.4737 44.7642 14.5318 42.6152 15.9819C42.0936 16.3261 40.5914 18.0683 40.3671 18.0683C39.4908 19.2941 38.1816 20.7806 36.5594 20.0504C36.0899 20.7389 34.2591 24.098 33.3306 23.8842C31.7189 27.5824 24.0304 28.2917 22.5804 31.9951L21.9075 33.2731C21.245 35.3595 17.2965 34.2067 16.8949 36.2514C16.6601 37.4303 11.8666 38.3379 11.8196 39.621C11.8666 38.2231 16.5819 37.013 16.8166 35.6725C17.213 33.3826 21.1772 34.6605 21.8501 32.3394L22.5178 30.9102C23.9939 26.8 31.6824 26.0071 33.2993 21.9073C34.233 22.1472 36.0638 18.4021 36.5333 17.6301C38.1659 18.4491 39.4751 16.7851 40.3514 15.4238C40.5809 15.4238 42.0936 13.4782 42.6048 13.0974C44.7642 11.4804 46.7776 14.7613 50.6062 11.3031C51.0026 11.7308 52.4214 11.8247 52.8126 11.4752C54.0488 13.6555 54.9303 15.1942 56.5994 13.8694C58.3729 16.3 60.115 13.4573 61.7059 13.3843C62.3162 13.3582 62.4101 14.8239 63.3177 15.2777C63.9812 15.6479 64.5787 16.1256 65.0859 16.6913C67.5323 16.3783 69.843 18.3082 72.0285 19.7166C72.741 19.6426 73.4204 19.3777 73.9949 18.9498L74.7982 16.6026C76.7803 17.6458 77.5158 18.9081 79.8265 18.3395C80.4107 18.1987 83.4308 16.9938 84.1193 17.1294C85.8667 17.4789 87.1863 15.455 88.7668 14.5996C89.6431 14.125 91.0984 16.7851 91.8964 16.5765C93.0544 16.274 94.4575 16.3783 95.5059 16.0549C96.4268 14.72 97.7697 13.7335 99.3189 13.2539C100.273 12.1429 102.068 11.5274 102.605 10.0095L103.069 9.93125C103.987 9.74869 104.561 9.27925 105.38 8.9402C106.288 8.55943 106.548 8.17866 107.466 7.89699C107.805 7.79789 108.202 6.85378 108.51 6.67644C109.417 6.15483 110.074 5.05946 111.196 5.02295L112.239 5.8523C112.729 6.25394 113.194 7.87613 113.663 8.02739C114.811 8.40295 115.666 10.2234 116.767 10.5833C117.168 10.7137 117.591 10.3798 118.044 10.7293C120.131 12.3202 122.635 16.5661 125.451 14.7144C128.231 16.4826 128.184 17.844 131.298 17.0825C132.185 16.8582 137.109 20.5198 138.747 20.9997C141.501 21.803 139.853 20.9684 141.485 20.9215C142.873 20.8641 152.83 29.4236 153.748 31.0615L154.4 32.1047C155.172 32.9079 163.262 38.6717 163.262 38.6717Z" fill="#231F20"/>
<path d="M163.262 38.6717C163.262 38.6717 154.213 34.6084 153.529 33.8312L153.639 32.2664C152.47 30.9989 142.805 23.0757 141.433 23.1226C139.806 23.1748 141.433 23.9155 138.705 23.2113C137.078 22.794 131.992 19.3984 131.105 19.5966C130.726 19.6861 130.341 19.7489 129.953 19.7844C130.584 20.6659 130.918 21.6674 131.518 22.2933C132.196 23.0578 132.915 23.7856 133.672 24.4736C132.675 23.6129 131.544 23.0548 130.798 22.2933C130.135 21.61 129.191 20.4781 128.336 19.5392C127.496 19.1532 126.828 18.3656 125.263 17.4528C122.457 19.1115 119.943 15.3038 117.878 13.8746C117.424 13.5616 117.001 13.8746 116.6 13.7442C115.504 13.4208 114.654 11.7882 113.512 11.4543C113.042 11.3135 112.573 9.88952 112.088 9.49832L111.045 8.75764C109.928 8.79415 109.271 9.80085 108.369 10.239C108.056 10.3955 107.659 11.2457 107.326 11.3344C106.392 11.5743 106.136 11.9186 105.239 12.2576C104.42 12.5654 103.852 12.9826 102.939 13.1496L102.475 13.2174C101.953 14.5788 100.148 15.1317 99.1937 16.1279C99.0111 16.1801 98.8286 16.2375 98.6721 16.3C94.76 18.6055 92.6997 23.2896 88.7616 25.0317L89.1163 24.2597C91.3383 22.5332 91.5835 21.0936 93.3621 18.9081C92.8362 18.9369 92.3132 19.0049 91.7973 19.1115C90.9941 19.2993 89.5388 16.9103 88.6677 17.338C87.1029 18.1048 85.778 19.9461 84.0358 19.6122C83.3525 19.4871 81.2505 20.9423 80.6663 21.0675C78.3608 21.5891 77.6305 20.4259 75.6536 19.5027L74.8504 21.5891C74.7021 21.6759 74.5396 21.7359 74.3705 21.7665C76.144 23.4721 75.3616 24.5571 76.7177 26.0175C78.0739 27.478 78.5538 27.4363 79.9778 28.8342C78.5433 27.4363 77.0724 27.5354 75.6693 26.0175C74.3444 24.5936 74.2662 24.0146 72.5084 22.335L71.9868 21.9021C69.8065 20.6398 67.501 18.9081 65.0599 19.1897C64.546 18.6689 63.9505 18.2354 63.2968 17.9066C62.3945 17.4997 62.3006 16.1853 61.6903 16.2062C60.1255 16.274 58.3677 18.8142 56.5994 16.6443C54.9303 17.8336 54.054 16.4513 52.823 14.4953C52.4686 14.6524 52.0821 14.7235 51.695 14.7026C51.3079 14.6818 50.9312 14.5696 50.5958 14.3753C46.7985 17.4737 44.7642 14.5318 42.6152 15.9819C42.0936 16.3261 40.5914 18.0683 40.3671 18.0683C39.4908 19.2941 38.1816 20.7806 36.5594 20.0504C36.0899 20.7389 34.2591 24.098 33.3306 23.8842C31.7189 27.5824 24.0304 28.2917 22.5804 31.9951L21.9075 33.2731C21.245 35.3595 17.2965 34.2067 16.8949 36.2514C16.6601 37.4303 11.8666 38.3379 11.8196 39.621C11.8666 38.2231 16.5819 37.013 16.8166 35.6725C17.213 33.3826 21.1772 34.6605 21.8501 32.3394L22.5178 30.9102C23.9939 26.8 31.6824 26.0071 33.2993 21.9073C34.233 22.1472 36.0638 18.4021 36.5333 17.6301C38.1659 18.4491 39.4751 16.7851 40.3514 15.4238C40.5809 15.4238 42.0936 13.4782 42.6048 13.0974C44.7642 11.4804 46.7776 14.7613 50.6062 11.3031C51.0026 11.7308 52.4214 11.8247 52.8126 11.4752C54.0488 13.6555 54.9303 15.1942 56.5994 13.8694C58.3729 16.3 60.115 13.4573 61.7059 13.3843C62.3162 13.3582 62.4101 14.8239 63.3177 15.2777C63.9812 15.6479 64.5787 16.1256 65.0859 16.6913C67.5323 16.3783 69.843 18.3082 72.0285 19.7166C72.741 19.6426 73.4204 19.3777 73.9949 18.9498L74.7982 16.6026C76.7803 17.6458 77.5158 18.9081 79.8265 18.3395C80.4107 18.1987 83.4308 16.9938 84.1193 17.1294C85.8667 17.4789 87.1863 15.455 88.7668 14.5996C89.6431 14.125 91.0984 16.7851 91.8964 16.5765C93.0544 16.274 94.4575 16.3783 95.5059 16.0549C96.4268 14.72 97.7697 13.7335 99.3189 13.2539C100.273 12.1429 102.068 11.5274 102.605 10.0095L103.069 9.93125C103.987 9.74869 104.561 9.27925 105.38 8.9402C106.288 8.55943 106.548 8.17866 107.466 7.89699C107.805 7.79789 108.202 6.85378 108.51 6.67644C109.417 6.15483 110.074 5.05946 111.196 5.02295L112.239 5.8523C112.729 6.25394 113.194 7.87613 113.663 8.02739C114.811 8.40295 115.666 10.2234 116.767 10.5833C117.168 10.7137 117.591 10.3798 118.044 10.7293C120.131 12.3202 122.635 16.5661 125.451 14.7144C128.231 16.4826 128.184 17.844 131.298 17.0825C132.185 16.8582 137.109 20.5198 138.747 20.9997C141.501 21.803 139.853 20.9684 141.485 20.9215C142.873 20.8641 152.83 29.4236 153.748 31.0615L154.4 32.1047C155.172 32.9079 163.262 38.6717 163.262 38.6717Z" fill="white" stroke="white" stroke-width="0.787623" stroke-miterlimit="3.86"/>
<defs>
<linearGradient id="paint0_linear_267_1505" x1="87.6296" y1="7.04175" x2="87.6296" y2="39.6421" gradientUnits="userSpaceOnUse">
<stop stop-color="#C06538"/>
<stop offset="1" stop-color="#C06538" stop-opacity="0"/>
</linearGradient>
</defs>
</svg>
