<svg width="166" height="71" viewBox="0 0 166 71" fill="none" xmlns="http://www.w3.org/2000/svg">
<path d="M52.7544 22.4L46.8984 28.16H30.6744V35.84H44.1144C45.9704 35.84 47.5384 36.512 48.8184 37.856C50.1624 39.136 50.8344 40.704 50.8344 42.56V49.28C50.8344 51.136 50.1624 52.736 48.8184 54.08C47.5384 55.36 45.9704 56 44.1144 56H23.9544V50.24H44.1144V41.6H30.6744C28.8184 41.6 27.2184 40.96 25.8744 39.68C24.5944 38.336 23.9544 36.736 23.9544 34.88V29.12C23.9544 27.264 24.5944 25.696 25.8744 24.416C27.2184 23.072 28.8184 22.4 30.6744 22.4H52.7544ZM78.1606 56H64.7206C62.8646 56 61.2646 55.36 59.9206 54.08C58.6406 52.736 58.0006 51.136 58.0006 49.28V28.16H48.4006L54.1606 22.4H58.0006V15.68L64.7206 8.96V22.4H78.1606V28.16H64.7206V50.24H78.1606V56ZM102.164 56H95.4444V7.04L102.164 0.319996V56ZM143.489 56H116.609C114.753 56 113.153 55.36 111.809 54.08C110.529 52.736 109.889 51.136 109.889 49.28V29.12C109.889 27.264 110.529 25.696 111.809 24.416C113.153 23.072 114.753 22.4 116.609 22.4H136.769C138.625 22.4 140.193 23.072 141.473 24.416C142.817 25.696 143.489 27.264 143.489 29.12V35.84L136.769 42.56H117.569L123.329 36.8H136.769V28.16H116.609V50.24H143.489V56Z" fill="#808080"/>
<path d="M87.7681 16.64H81.0481V8.96H87.7681V16.64ZM87.7681 56H81.0481V27.2L87.7681 20.48V56Z" fill="#56766D"/>
<path d="M153 49.6775L153 50.8375L152.13 50.8375L153 51.7075L153 54.7525C153 55.0232 152.898 55.26 152.695 55.463C152.492 55.666 152.256 55.7675 151.985 55.7675L146.91 55.7675C146.639 55.7675 146.402 55.666 146.199 55.463C145.996 55.26 145.895 55.0232 145.895 54.7525L145.895 49.6775L146.91 49.6775L146.91 54.6075L151.985 54.6075L151.985 50.8375L149.955 50.8375L149.955 52.7225L148.94 51.7075L148.94 49.6775L153 49.6775ZM153 43.0755L153 48.1505L145.895 48.1505L145.895 46.9905L151.985 46.9905L151.985 44.2355L150.97 44.2355L150.97 43.0755L153 43.0755ZM153 36.2576L153 37.4176L150.97 37.4176L150.97 41.1876L153 41.1876L153 42.3476L146.91 42.3476C146.63 42.3476 146.393 42.251 146.199 42.0576C145.996 41.8546 145.895 41.613 145.895 41.3326L145.895 36.2576L153 36.2576ZM149.955 37.4176L146.91 37.4176L146.91 41.1876L150.825 41.1876L149.955 40.3176L149.955 37.4176ZM151.985 29.5933C152.265 29.5933 152.507 29.6948 152.71 29.8978C152.903 30.0911 153 30.328 153 30.6083L153 34.6683L151.985 34.6683L151.985 30.7533L149.955 30.7533L149.955 33.6533C149.955 33.9336 149.858 34.1753 149.665 34.3783C149.462 34.5716 149.22 34.6683 148.94 34.6683L146.91 34.6683C146.63 34.6683 146.393 34.5716 146.199 34.3783C145.996 34.1753 145.895 33.9336 145.895 33.6533L145.895 29.5933L146.91 29.5933L146.91 33.5083L148.94 33.5083L148.94 30.6083C148.94 30.328 149.041 30.0911 149.244 29.8978C149.438 29.6948 149.675 29.5933 149.955 29.5933L151.985 29.5933ZM151.985 23.2099C152.265 23.2099 152.507 23.3114 152.71 23.5144C152.903 23.7077 153 23.9446 153 24.2249L153 28.2849L151.985 28.2849L151.985 24.3699L149.955 24.3699L149.955 27.2699C149.955 27.5502 149.858 27.7919 149.665 27.9949C149.462 28.1882 149.22 28.2849 148.94 28.2849L146.91 28.2849C146.63 28.2849 146.393 28.1882 146.199 27.9949C145.996 27.7919 145.895 27.5502 145.895 27.2699L145.895 23.2099L146.91 23.2099L146.91 27.1249L148.94 27.1249L148.94 24.2249C148.94 23.9446 149.041 23.7077 149.244 23.5144C149.438 23.3114 149.675 23.2099 149.955 23.2099L151.985 23.2099Z" fill="#56766D"/>
</svg>
