<?xml version="1.0" encoding="UTF-8"?>
<svg id="Layer_2" data-name="Layer 2" xmlns="http://www.w3.org/2000/svg" viewBox="0 0 242.82 118.77">
  <defs>
    <style>
      .cls-1 {
        fill: #fff;
      }
    </style>
  </defs>
  <g id="PROJECT">
    <rect class="cls-1" x="62.09" y="0" width="180.73" height="23.75" rx="11.88" ry="11.88"/>
    <rect class="cls-1" x="12.82" y="95.02" width="191.83" height="23.75" rx="11.88" ry="11.88"/>
    <path class="cls-1" d="M186.24,47.51h-61.56c3.28,0,6.25-1.33,8.4-3.47,2.15-2.15,3.48-5.12,3.48-8.4,0-6.56-5.32-11.88-11.88-11.88h61.56c-3.28,0-6.25,1.33-8.4,3.48-2.15,2.15-3.48,5.12-3.48,8.4,0,6.56,5.32,11.87,11.88,11.87Z"/>
    <path class="cls-1" d="M117.62,95.02h-61.56c3.28,0,6.25-1.33,8.4-3.47,2.15-2.15,3.48-5.12,3.48-8.4,0-6.56-5.32-11.88-11.88-11.88h61.56c-3.28,0-6.25,1.33-8.4,3.48-2.15,2.15-3.48,5.12-3.48,8.4,0,6.56,5.32,11.87,11.88,11.87Z"/>
    <rect class="cls-1" x="0" y="47.51" width="242.82" height="23.75" rx="11.88" ry="11.88"/>
  </g>
</svg>